HIERARCHY
ROOT Hips
{
 OFFSET 0.000000 0.000000 0.000000
 CHANNELS 6 Xposition Yposition Zposition Yrotation Xrotation Zrotation
 JOINT Chest
 {
  OFFSET 0.000000 9.585900 0.002600
  CHANNELS 3 Yrotation Xrotation Zrotation
  JOINT Chest2
  {
   OFFSET 0.000000 9.601200 -0.005300
   CHANNELS 3 Yrotation Xrotation Zrotation
   JOINT Chest3
   {
    OFFSET 0.000000 9.561800 0.000000
    CHANNELS 3 Yrotation Xrotation Zrotation
    JOINT Chest4
    {
     OFFSET 0.000000 9.552100 0.000000
     CHANNELS 3 Yrotation Xrotation Zrotation
     JOINT Neck
     {
      OFFSET 0.000000 14.453000 0.000000
      CHANNELS 3 Yrotation Xrotation Zrotation
      JOINT Head
      {
       OFFSET 0.000000 8.936500 -0.011300
       CHANNELS 3 Yrotation Xrotation Zrotation
       End Site
       {
        OFFSET 0.000000 17.073600 -0.006000
       }
      }
     }
     JOINT RightCollar
     {
      OFFSET -2.921100 9.558500 0.000000
      CHANNELS 3 Yrotation Xrotation Zrotation
      JOINT RightShoulder
      {
       OFFSET -13.519700 0.000000 0.000000
       CHANNELS 3 Yrotation Xrotation Zrotation
       JOINT RightElbow
       {
        OFFSET 0.000000 -29.696600 0.000000
        CHANNELS 3 Yrotation Xrotation Zrotation
        JOINT RightWrist
        {
         OFFSET 0.000000 -24.004700 0.000000
         CHANNELS 3 Yrotation Xrotation Zrotation
         End Site
         {
          OFFSET 0.000000 -17.728500 0.000000
         }
        }
       }
      }
     }
     JOINT LeftCollar
     {
      OFFSET 2.921100 9.558500 0.000000
      CHANNELS 3 Yrotation Xrotation Zrotation
      JOINT LeftShoulder
      {
       OFFSET 13.519700 0.000000 0.000000
       CHANNELS 3 Yrotation Xrotation Zrotation
       JOINT LeftElbow
       {
        OFFSET 0.000000 -29.696600 0.000000
        CHANNELS 3 Yrotation Xrotation Zrotation
        JOINT LeftWrist
        {
         OFFSET 0.000000 -24.004700 0.000000
         CHANNELS 3 Yrotation Xrotation Zrotation
         End Site
         {
          OFFSET 0.000000 -17.728500 0.000000
         }
        }
       }
      }
     }
    }
   }
  }
 }
 JOINT RightHip
 {
  OFFSET -7.771700 -0.012900 -0.001300
  CHANNELS 3 Yrotation Xrotation Zrotation
  JOINT RightKnee
  {
   OFFSET 0.000000 -40.869800 0.001200
   CHANNELS 3 Yrotation Xrotation Zrotation
   JOINT RightAnkle
   {
    OFFSET 0.000000 -39.717900 0.002100
    CHANNELS 3 Yrotation Xrotation Zrotation
    JOINT RightToe
    {
     OFFSET 0.000000 -4.965400 11.033500
     CHANNELS 3 Yrotation Xrotation Zrotation
     End Site
     {
      OFFSET 0.000000 -1.423100 5.872300
     }
    }
   }
  }
 }
 JOINT LeftHip
 {
  OFFSET 7.771700 -0.012900 -0.001300
  CHANNELS 3 Yrotation Xrotation Zrotation
  JOINT LeftKnee
  {
   OFFSET 0.000000 -40.869800 0.001200
   CHANNELS 3 Yrotation Xrotation Zrotation
   JOINT LeftAnkle
   {
    OFFSET 0.000000 -39.717900 0.002100
    CHANNELS 3 Yrotation Xrotation Zrotation
    JOINT LeftToe
    {
     OFFSET 0.000000 -4.965400 11.033500
     CHANNELS 3 Yrotation Xrotation Zrotation
     End Site
     {
      OFFSET 0.000000 -1.423100 5.872300
     }
    }
   }
  }
 }
}
MOTION
Frames: 6
Frame Time: 0.008333
-46.789179 56.365012 43.901450 -169.197668 -29.730595 -11.105975 -3.657186 15.141254 6.410464 -2.270698 8.595613 1.911453 -2.791057 10.770142 2.334207 -2.265041 8.605181 1.906037 0.016338 19.707347 -4.516664 1.059079 -4.740117 -4.856673 2.377441 -1.719230 -3.905458 2.285862 -13.562901 3.715092 73.381677 -44.753525 -56.809486 11.757719 -2.995813 -20.002075 -11.243274 1.264637 -4.131162 -7.867611 -11.553248 1.785606 -66.328418 -37.069282 74.101563 -2.910941 -19.589339 -2.312040 -22.686986 -28.348317 4.270700 11.398610 89.220748 8.148266 0.537456 -26.089674 0.260033 -0.135384 0.702626 -0.062490 -19.090487 -45.530314 7.536522 170.583086 72.638236 168.609274 1.091131 -22.177584 -2.236586 -1.504300 -4.322174 -0.663383
-46.790798 56.362265 43.903872 -169.202738 -29.726112 -11.092502 -3.652686 15.138861 6.399833 -2.268668 8.599557 1.908335 -2.792829 10.764600 2.337885 -2.263004 8.612360 1.898846 0.017380 19.690642 -4.510594 1.042651 -4.788545 -4.849286 2.383094 -1.741359 -3.901424 2.255168 -13.553479 3.683798 73.335463 -44.833886 -56.721068 11.718693 -3.032869 -20.003318 -11.231976 1.243020 -4.121802 -7.851274 -11.542043 1.818653 -66.324405 -37.232586 74.032291 -3.009386 -19.566544 -2.277561 -22.684985 -28.364803 4.257253 11.099040 89.226270 7.844397 0.546773 -26.091518 0.263540 -0.134096 0.704421 -0.064238 -19.089060 -45.534784 7.545886 170.648265 72.646831 168.661975 1.084597 -22.196066 -2.231692 -1.497269 -4.304894 -0.659632
-46.795963 56.359185 43.907233 -169.189930 -29.718129 -11.065282 -3.672511 15.131994 6.365912 -2.260118 8.609533 1.902690 -2.797504 10.761949 2.339429 -2.262007 8.612487 1.897653 0.012880 19.673772 -4.508780 1.035807 -4.805134 -4.842970 2.386762 -1.762373 -3.903137 2.222120 -13.543306 3.659935 73.325005 -44.890382 -56.656481 11.740101 -3.043719 -20.033985 -11.219268 1.215587 -4.112368 -7.855625 -11.521339 1.827296 -66.322162 -37.304170 74.000795 -3.042015 -19.555576 -2.256709 -22.684211 -28.392004 4.217308 11.241138 89.239162 7.982015 0.548054 -26.096523 0.271497 -0.129983 0.705189 -0.065864 -19.082010 -45.545767 7.526031 170.751480 72.665238 168.744702 1.085838 -22.216594 -2.219298 -1.489273 -4.279383 -0.655970
-46.796812 56.357755 43.909810 -169.188400 -29.718883 -11.057554 -3.671401 15.135500 6.355928 -2.259049 8.609827 1.903390 -2.798469 10.764769 2.335828 -2.260529 8.613558 1.896602 -0.000531 19.653562 -4.510966 1.032778 -4.814231 -4.832399 2.388099 -1.777795 -3.898365 2.188695 -13.538378 3.632021 73.334939 -44.922938 -56.610000 11.758454 -3.061531 -20.060889 -11.221166 1.200144 -4.106580 -7.836215 -11.508495 1.864251 -66.331565 -37.353889 73.979854 -2.985420 -19.564095 -2.223504 -22.685676 -28.400278 4.199150 11.354243 89.250867 8.097270 0.558924 -26.094825 0.267759 -0.132390 0.704627 -0.065852 -19.088307 -45.545546 7.535655 170.803828 72.671964 168.781963 1.086582 -22.225399 -2.212415 -1.490959 -4.270417 -0.656892
-46.796828 56.357253 43.912199 -169.182537 -29.723991 -11.054464 -3.669262 15.143911 6.351111 -2.264360 8.607452 1.903395 -2.793042 10.770131 2.332024 -2.265530 8.611908 1.896093 -0.009437 19.643879 -4.508073 1.024556 -4.827683 -4.824768 2.384540 -1.783151 -3.892856 2.168049 -13.539871 3.604387 73.366711 -44.936846 -56.589026 11.765485 -3.069217 -20.076711 -11.222912 1.188886 -4.103656 -7.822157 -11.486927 1.920613 -66.336713 -37.438358 73.958107 -2.994495 -19.566030 -2.190539 -22.690706 -28.400502 4.187747 11.434538 89.249360 8.173109 0.562500 -26.092061 0.269677 -0.132296 0.704424 -0.065865 -19.099928 -45.540452 7.547906 170.843083 72.677297 168.805319 1.086613 -22.229543 -2.206538 -1.495440 -4.265065 -0.657838
-46.795498 56.357161 43.915344 -169.184769 -29.728684 -11.051120 -3.665011 15.148580 6.345542 -2.264495 8.609267 1.901780 -2.793205 10.772422 2.329801 -2.264513 8.609223 1.901742 -0.020990 19.639377 -4.509737 1.018819 -4.839635 -4.817115 2.384196 -1.783209 -3.895296 2.155796 -13.540567 3.582592 73.390900 -44.938637 -56.575809 11.761663 -3.077649 -20.090376 -11.227337 1.176645 -4.110755 -7.820582 -11.468963 1.939367 -66.355809 -37.457113 73.965538 -2.996450 -19.551998 -2.178568 -22.691979 -28.401067 4.185562 11.765193 89.251745 8.497226 0.560381 -26.087086 0.271259 -0.127262 0.707077 -0.063781 -19.105137 -45.535755 7.562069 170.867894 72.682236 168.820228 1.084077 -22.232204 -2.203105 -1.496688 -4.261854 -0.659747
